<?xml version="1.0" encoding="UTF-8"?>
<svg version="1.1" xmlns="http://www.w3.org/2000/svg" width="1061" height="358">
<path d="M0 0 C1.88591957 -0.36914349 1.88591957 -0.36914349 4.22671509 -0.36076355 C5.11295059 -0.36488754 5.9991861 -0.36901154 6.91227722 -0.3732605 C7.88691422 -0.36247467 8.86155121 -0.35168884 9.86572266 -0.34057617 C11.4023481 -0.34123329 11.4023481 -0.34123329 12.97001648 -0.34190369 C16.36822331 -0.33980766 19.76594148 -0.31643798 23.1640625 -0.29296875 C25.51532725 -0.2873757 27.8665955 -0.28310423 30.21786499 -0.28010559 C36.41578776 -0.26863397 42.61350066 -0.23914676 48.81134033 -0.20599365 C55.1320105 -0.17534271 61.45271448 -0.1616109 67.7734375 -0.14648438 C80.18238403 -0.11427937 92.59117459 -0.06305501 105 0 C106.04250477 3.64855433 105.78913374 5.89885587 104.890625 9.61328125 C104.63023437 10.69673828 104.36984375 11.78019531 104.1015625 12.89648438 C103.82054687 14.02376953 103.53953125 15.15105469 103.25 16.3125 C102.98445312 17.42818359 102.71890625 18.54386719 102.4453125 19.69335938 C101.02222313 25.52042675 99.39734225 30.40620141 97 36 C73.9 36 50.8 36 27 36 C24.55414251 45.73029552 24.55414251 45.73029552 22.5 55.5 C21.25067976 62.10354983 19.64103522 68.43585912 18 75 C38.13 75 58.26 75 79 75 C79.96371218 79.81856089 79.88243816 81.6286127 78.6875 86.1875 C78.42324219 87.23292969 78.15898437 88.27835937 77.88671875 89.35546875 C77 92 77 92 75 94 C72.4057312 94.24050903 72.4057312 94.24050903 69.08154297 94.22705078 C67.84040741 94.22689972 66.59927185 94.22674866 65.32052612 94.22659302 C63.9610783 94.216379 62.6016321 94.205947 61.2421875 94.1953125 C59.85499271 94.19158284 58.46779529 94.18873565 57.08059692 94.18673706 C53.42759949 94.17909684 49.77476083 94.15944516 46.12182617 94.1373291 C42.39504138 94.11687896 38.66823096 94.10773713 34.94140625 94.09765625 C27.62753175 94.07619951 20.31378811 94.04205903 13 94 C12.67 95.98 12.34 97.96 12 100 C28.83 100 45.66 100 63 100 C64.08731843 104.34927371 63.70957987 106.33323333 62.6875 110.625 C62.42324219 111.77226562 62.15898437 112.91953125 61.88671875 114.1015625 C61 117 61 117 59 119 C56.74740601 119.24050903 56.74740601 119.24050903 53.90771484 119.22705078 C52.84676605 119.22689972 51.78581726 119.22674866 50.69271851 119.22659302 C49.54373077 119.21627045 48.39474304 119.20594788 47.2109375 119.1953125 C46.03737701 119.1924826 44.86381653 119.18965271 43.6546936 119.18673706 C39.89469338 119.17551355 36.13492861 119.15040492 32.375 119.125 C29.8307326 119.11497301 27.28646148 119.10584668 24.7421875 119.09765625 C18.4947109 119.07556714 12.24737227 119.04206824 6 119 C6 120.98 6 122.96 6 125 C7.35375732 124.75660889 7.35375732 124.75660889 8.73486328 124.50830078 C14.21578391 123.73060374 19.71740549 123.85720268 25.2421875 123.8671875 C26.40630157 123.86623077 27.57041565 123.86527405 28.76980591 123.86428833 C31.21893366 123.86361007 33.66806324 123.86543961 36.1171875 123.86962891 C39.88285292 123.87501122 43.64840063 123.86965708 47.4140625 123.86328125 C49.7942711 123.86394152 52.17447962 123.86522163 54.5546875 123.8671875 C55.68687714 123.86516327 56.81906677 123.86313904 57.98556519 123.86105347 C59.54321091 123.86578171 59.54321091 123.86578171 61.13232422 123.87060547 C62.05052948 123.87140106 62.96873474 123.87219666 63.9147644 123.87301636 C66 124 66 124 67 125 C67.56510331 131.63996384 65.98127758 138.03744484 63 144 C61.81515266 144.00213753 61.81515266 144.00213753 60.60636902 144.00431824 C53.1189495 144.02223579 45.63220995 144.06410565 38.14509106 144.13209057 C34.29692664 144.16620932 30.44915283 144.19144672 26.60083008 144.19555664 C22.878662 144.19987248 19.15737278 144.22860208 15.43548012 144.27343178 C14.02396093 144.28630303 12.61233599 144.29075172 11.20076561 144.28615379 C1.88108827 144.26289293 -4.81860331 145.54381501 -13 150 C-15.23983584 150.90069995 -17.48814762 151.78111091 -19.75 152.625 C-23.23567343 153.93574553 -26.67449962 155.26722359 -30.0625 156.8125 C-33 158 -33 158 -37 158 C-37.2801409 151.50375958 -36.27695653 145.90995704 -34.6875 139.625 C-34.47416016 138.74328125 -34.26082031 137.8615625 -34.04101562 136.953125 C-32.55604294 130.90684817 -30.8416343 124.94669399 -29 119 C-31.64 119 -34.28 119 -37 119 C-37.45510807 112.32508169 -35.7672426 106.40625443 -34 100 C-29.545 99.505 -29.545 99.505 -25 99 C-24.74307373 97.94200195 -24.48614746 96.88400391 -24.22143555 95.79394531 C-23.25455479 91.81288997 -22.2871418 87.83196411 -21.31958008 83.85107422 C-20.9034226 82.13854358 -20.48740336 80.42597934 -20.0715332 78.71337891 C-19.46863894 76.23070241 -18.86530828 73.74813255 -18.26171875 71.265625 C-18.06230179 70.44513168 -17.86288483 69.62463837 -17.65742493 68.77928162 C-16.64333825 64.61440592 -15.61251176 60.45480651 -14.5546875 56.30078125 C-13.08014101 50.43637524 -11.72845726 44.54470477 -10.37109375 38.65234375 C-10.13406235 37.62587738 -9.89703094 36.59941101 -9.65281677 35.5418396 C-8.16438571 29.095903 -8.16438571 29.095903 -6.68579102 22.64770508 C-5.96152369 19.48125667 -5.22951113 16.31668347 -4.49609375 13.15234375 C-4.27521591 12.17740463 -4.05433807 11.20246552 -3.82676697 10.19798279 C-3.61637283 9.29596634 -3.4059787 8.39394989 -3.18920898 7.46459961 C-3.007285 6.67250595 -2.82536102 5.88041229 -2.63792419 5.0643158 C-2 3 -2 3 0 0 Z " fill="#020203" transform="translate(207,98)"/>
<path d="M0 0 C0.77338431 0.00092179 1.54676863 0.00184359 2.34358883 0.00279331 C3.22844967 0.00141865 4.11331051 0.00004398 5.02498531 -0.00137234 C6.00321758 0.00222294 6.98144985 0.00581821 7.98932552 0.00952244 C9.01359646 0.00937641 10.03786739 0.00923038 11.09317684 0.00907993 C14.49665055 0.00977955 17.9000703 0.0175742 21.30353451 0.02539158 C23.65623094 0.02725559 26.00892776 0.02867957 28.36162472 0.0296793 C34.56769531 0.03350584 40.77374266 0.04333728 46.97980404 0.05438328 C53.30711204 0.06459448 59.63442378 0.06917629 65.96173763 0.0742197 C78.38687807 0.08495942 90.81200124 0.10203747 103.23712826 0.12304783 C104.92814607 3.26649332 105.48379074 4.63045805 104.47931576 8.10742283 C104.26774837 8.86958103 104.05618099 9.63173923 103.83820248 10.41699314 C103.59859798 11.22749119 103.35899349 12.03798923 103.11212826 12.87304783 C102.63213693 14.59156771 102.15298295 16.31032167 101.67462826 18.02929783 C101.43099545 18.88781345 101.18736263 19.74632908 100.93634701 20.63086033 C99.93578236 24.19711867 99.01095713 27.77996935 98.11212826 31.37304783 C97.94962582 32.01943211 97.78712337 32.66581638 97.61969662 33.33178806 C96.22808625 38.96402504 95.10247295 44.62624946 94.04572201 50.33007908 C93.39311576 53.39133836 92.64019836 56.35370605 91.79962826 59.36523533 C90.23101227 65.01254256 88.99376346 70.69932118 87.79962826 76.43554783 C86.19262675 83.99481029 84.41365273 91.40382057 82.20587826 98.81054783 C79.23119626 108.9820411 76.96238516 119.27401616 74.95197201 129.67382908 C74.14066217 133.58850987 73.09085209 137.39238367 71.98712826 141.23242283 C70.76282237 145.95110178 69.93812969 150.74839697 69.08087826 155.54492283 C66.83534489 165.06764768 66.83534489 165.06764768 63.53351498 167.24804783 C61.36079883 168.22412765 59.18763151 169.0052693 56.92462826 169.74804783 C55.72326229 170.17670139 55.72326229 170.17670139 54.4976263 170.61401463 C52.86486647 171.19397793 51.22817492 171.76299286 49.5877142 172.32080173 C47.44093746 173.05348852 45.31040435 173.8181587 43.18244076 174.60351658 C37.57711356 176.65880322 31.98680396 178.52471031 26.23712826 180.12304783 C26.90585698 173.77755532 28.14493972 167.70376394 29.61212826 161.49804783 C29.86977962 160.39525486 30.12743099 159.29246189 30.39288998 158.15625095 C31.33407421 154.14352453 32.28401617 150.13295453 33.23712826 146.12304783 C33.42508968 145.33208714 33.61305111 144.54112644 33.80670834 143.72619724 C36.75534415 131.32514989 39.72479839 118.92910724 42.69904232 106.53418064 C44.02914278 100.99106333 45.35746937 95.44752244 46.68533993 89.90387058 C47.77194797 85.3678516 48.85915873 80.83197724 49.94653988 76.29614353 C50.46805011 74.1205605 50.9894156 71.94494276 51.51062679 69.76928806 C53.0801106 63.21908379 54.65334816 56.66981147 56.23712826 50.12304783 C56.48970394 49.07872593 56.48970394 49.07872593 56.74738216 48.01330662 C57.16791272 46.2808939 57.59289977 44.54956449 58.01837826 42.81836033 C58.23558529 41.93422459 58.45279232 41.05008884 58.67658138 40.13916111 C59.23712826 38.12304783 59.23712826 38.12304783 60.23712826 36.12304783 C59.37713223 36.12526844 58.51713619 36.12748905 57.63107967 36.12977695 C49.53782472 36.14979008 41.44457804 36.1650272 33.35130405 36.17486 C29.19018787 36.18008502 25.02909208 36.18717578 20.86798763 36.19848728 C16.85447011 36.20932967 12.84097225 36.21532754 8.82744122 36.21792507 C7.29399334 36.21977687 5.76054658 36.22339283 4.22710705 36.22877789 C2.08410194 36.23600623 -0.0588213 36.23703801 -2.20183659 36.23657322 C-4.03384113 36.23990414 -4.03384113 36.23990414 -5.90285587 36.24330235 C-8.76287174 36.12304783 -8.76287174 36.12304783 -10.76287174 35.12304783 C-9.77256681 27.02986614 -7.84248567 19.28996556 -5.70037174 11.43554783 C-5.29600895 9.94643894 -5.29600895 9.94643894 -4.88347721 8.42724705 C-2.5971408 0.18127952 -2.5971408 0.18127952 0 0 Z " fill="#010101" transform="translate(88.76287174224854,97.87695217132568)"/>
<path d="M0 0 C1.16389015 3.95390571 0.6462938 6.59897483 -0.3125 10.625 C-0.57675781 11.77226562 -0.84101563 12.91953125 -1.11328125 14.1015625 C-2 17 -2 17 -4 19 C-6.25259399 19.24050903 -6.25259399 19.24050903 -9.09228516 19.22705078 C-10.15323395 19.22689972 -11.21418274 19.22674866 -12.30728149 19.22659302 C-13.45626923 19.21627045 -14.60525696 19.20594788 -15.7890625 19.1953125 C-16.96262299 19.1924826 -18.13618347 19.18965271 -19.3453064 19.18673706 C-23.10530662 19.17551355 -26.86507139 19.15040492 -30.625 19.125 C-33.1692674 19.11497301 -35.71353852 19.10584668 -38.2578125 19.09765625 C-44.5052891 19.07556714 -50.75262773 19.04206824 -57 19 C-57 20.98 -57 22.96 -57 25 C-56.09749512 24.83773926 -55.19499023 24.67547852 -54.26513672 24.50830078 C-48.78421609 23.73060374 -43.28259451 23.85720268 -37.7578125 23.8671875 C-36.59369843 23.86623077 -35.42958435 23.86527405 -34.23019409 23.86428833 C-31.78106634 23.86361007 -29.33193676 23.86543961 -26.8828125 23.86962891 C-23.11714708 23.87501122 -19.35159937 23.86965708 -15.5859375 23.86328125 C-13.2057289 23.86394152 -10.82552038 23.86522163 -8.4453125 23.8671875 C-7.31312286 23.86516327 -6.18093323 23.86313904 -5.01443481 23.86105347 C-3.45678909 23.86578171 -3.45678909 23.86578171 -1.86767578 23.87060547 C-0.94947052 23.87140106 -0.03126526 23.87219666 0.9147644 23.87301636 C3 24 3 24 4 25 C4.56510331 31.63996384 2.98127758 38.03744484 0 44 C-1.18484734 44.00213753 -1.18484734 44.00213753 -2.39363098 44.00431824 C-9.8810505 44.02223579 -17.36779005 44.06410565 -24.85490894 44.13209057 C-28.70307336 44.16620932 -32.55084717 44.19144672 -36.39916992 44.19555664 C-40.121338 44.19987248 -43.84262722 44.22860208 -47.56451988 44.27343178 C-48.97603907 44.28630303 -50.38766401 44.29075172 -51.79923439 44.28615379 C-61.11891173 44.26289293 -67.81860331 45.54381501 -76 50 C-78.23983584 50.90069995 -80.48814762 51.78111091 -82.75 52.625 C-86.23567343 53.93574553 -89.67449962 55.26722359 -93.0625 56.8125 C-96 58 -96 58 -100 58 C-100.2801409 51.50375958 -99.27695653 45.90995704 -97.6875 39.625 C-97.47416016 38.74328125 -97.26082031 37.8615625 -97.04101562 36.953125 C-95.55604294 30.90684817 -93.8416343 24.94669399 -92 19 C-94.64 19 -97.28 19 -100 19 C-100.36571706 13.2704328 -99.57237306 8.1976756 -97 3 C-93.06877455 0.37918304 -89.64777019 0.64709421 -85.078125 0.5859375 C-84.16553421 0.56652603 -83.25294342 0.54711456 -82.31269836 0.52711487 C-79.29189561 0.46623568 -76.27107522 0.42019139 -73.25 0.375 C-71.15616246 0.33700768 -69.06233111 0.29867315 -66.96850586 0.26000977 C-44.64717263 -0.12572207 -22.32370194 -0.09927076 0 0 Z " fill="#16B0E0" transform="translate(270,198)"/>
<path d="M0 0 C0.88964951 -0.00807175 1.77929901 -0.01614349 2.69590759 -0.02445984 C4.58655843 -0.0383239 6.47723454 -0.04903561 8.36791992 -0.05688477 C11.24121845 -0.07400352 14.11333811 -0.11785628 16.98632812 -0.16210938 C18.82421029 -0.17224437 20.66210225 -0.18075794 22.5 -0.1875 C23.35239761 -0.20500809 24.20479523 -0.22251617 25.08302307 -0.24055481 C30.90978638 -0.21969043 35.36476538 0.91381671 40.21484375 4.23828125 C43.96273468 8.46667101 45.49598737 12.63703531 45.21484375 18.23828125 C43.79729686 22.78935284 42.48432475 25.89695296 38.21484375 28.23828125 C37.55484375 28.23828125 36.89484375 28.23828125 36.21484375 28.23828125 C39.48041821 34.42038451 39.48041821 34.42038451 43.58984375 40.05078125 C44.12609375 40.77265625 44.66234375 41.49453125 45.21484375 42.23828125 C44.81640625 44.375 44.81640625 44.375 44.21484375 46.23828125 C40.11365086 46.71609013 36.29803729 46.93439822 32.21484375 46.23828125 C29.41310179 43.99073 27.70549576 41.49417906 26.21484375 38.23828125 C26.21484375 37.57828125 26.21484375 36.91828125 26.21484375 36.23828125 C25.55484375 36.23828125 24.89484375 36.23828125 24.21484375 36.23828125 C23.55484375 34.25828125 22.89484375 32.27828125 22.21484375 30.23828125 C15.94484375 30.23828125 9.67484375 30.23828125 3.21484375 30.23828125 C3.25441165 35.12981596 3.25441165 35.12981596 3.30493164 40.02124023 C3.31209288 41.76049842 3.26509077 43.49973429 3.21484375 45.23828125 C2.21484375 46.23828125 2.21484375 46.23828125 -0.25390625 46.37109375 C-1.754375 46.36722656 -1.754375 46.36722656 -3.28515625 46.36328125 C-4.28546875 46.36585938 -5.28578125 46.3684375 -6.31640625 46.37109375 C-8.78515625 46.23828125 -8.78515625 46.23828125 -9.78515625 45.23828125 C-9.88310936 43.86218243 -9.91313713 42.48114243 -9.91455078 41.1015625 C-9.91770294 40.22395264 -9.9208551 39.34634277 -9.92410278 38.44213867 C-9.92207855 37.48799072 -9.92005432 36.53384277 -9.91796875 35.55078125 C-9.91892548 34.57794189 -9.9198822 33.60510254 -9.92086792 32.6027832 C-9.92154983 30.54150325 -9.91969478 28.48022117 -9.91552734 26.41894531 C-9.91017925 23.25190437 -9.91547197 20.08500525 -9.921875 16.91796875 C-9.92121422 14.9205726 -9.91993306 12.92317654 -9.91796875 10.92578125 C-9.91999298 9.9716333 -9.92201721 9.01748535 -9.92410278 8.03442383 C-9.92095062 7.15681396 -9.91779846 6.2792041 -9.91455078 5.375 C-9.91375519 4.59858154 -9.91295959 3.82216309 -9.91213989 3.0222168 C-9.57890665 -1.6592257 -3.5588786 0.03033717 0 0 Z M3.21484375 11.23828125 C3.21484375 14.53828125 3.21484375 17.83828125 3.21484375 21.23828125 C6.94444741 21.31929436 10.67228734 21.37879194 14.40234375 21.42578125 C15.98499023 21.46348633 15.98499023 21.46348633 17.59960938 21.50195312 C18.62119141 21.51162109 19.64277344 21.52128906 20.6953125 21.53125 C21.63270264 21.54696045 22.57009277 21.5626709 23.53588867 21.57885742 C26.70811186 21.17557196 28.60220129 20.03460243 31.21484375 18.23828125 C30.88484375 15.92828125 30.55484375 13.61828125 30.21484375 11.23828125 C21.30484375 11.23828125 12.39484375 11.23828125 3.21484375 11.23828125 Z " fill="#7F7F82" transform="translate(672.78515625,167.76171875)"/>
<path d="M0 0 C0.93767212 -0.00315216 1.87534424 -0.00630432 2.84143066 -0.009552 C3.86119995 -0.00752777 4.88096924 -0.00550354 5.93164062 -0.00341797 C7.49078186 -0.00485306 7.49078186 -0.00485306 9.0814209 -0.00631714 C11.28393616 -0.0069991 13.48645342 -0.00514374 15.68896484 -0.00097656 C19.07328782 0.00437146 22.45747806 -0.00092105 25.84179688 -0.00732422 C27.97591175 -0.00666344 30.11002655 -0.00538228 32.24414062 -0.00341797 C33.26390991 -0.0054422 34.2836792 -0.00746643 35.33435059 -0.009552 C36.74085876 -0.00482376 36.74085876 -0.00482376 38.17578125 0 C39.42035095 0.00119339 39.42035095 0.00119339 40.69006348 0.00241089 C42.58789062 0.12939453 42.58789062 0.12939453 43.58789062 1.12939453 C43.68579632 2.62677577 43.71763927 4.12882345 43.71289062 5.62939453 C43.71675781 6.85142578 43.71675781 6.85142578 43.72070312 8.09814453 C43.58789062 10.12939453 43.58789062 10.12939453 42.58789062 11.12939453 C39.99429741 11.21790982 37.42749371 11.24465398 34.83398438 11.22705078 C34.05853775 11.22563583 33.28309113 11.22422089 32.48414612 11.22276306 C29.99785568 11.21714798 27.51165402 11.204593 25.02539062 11.19189453 C23.3437513 11.18688147 21.66211056 11.18231823 19.98046875 11.17822266 C15.84957496 11.16717366 11.71874787 11.14989898 7.58789062 11.12939453 C7.58789062 13.10939453 7.58789062 15.08939453 7.58789062 17.12939453 C8.30968506 17.12415771 9.03147949 17.1189209 9.77514648 17.11352539 C13.02521911 17.09282095 16.27527791 17.07975535 19.52539062 17.06689453 C20.66169922 17.05851562 21.79800781 17.05013672 22.96875 17.04150391 C24.04833984 17.03828125 25.12792969 17.03505859 26.24023438 17.03173828 C27.74058228 17.02388306 27.74058228 17.02388306 29.27124023 17.01586914 C31.58789062 17.12939453 31.58789062 17.12939453 32.58789062 18.12939453 C32.58789062 21.42939453 32.58789062 24.72939453 32.58789062 28.12939453 C24.33789062 28.12939453 16.08789062 28.12939453 7.58789062 28.12939453 C7.58789062 30.43939453 7.58789062 32.74939453 7.58789062 35.12939453 C8.64290771 35.12415771 9.6979248 35.1189209 10.78491211 35.11352539 C14.68545692 35.09547553 18.58599802 35.08396258 22.48657227 35.07446289 C24.17733378 35.06942264 25.86809092 35.06259048 27.55883789 35.05395508 C29.98389769 35.04187596 32.40890006 35.0361633 34.83398438 35.03173828 C35.97461586 35.02399635 35.97461586 35.02399635 37.13829041 35.01609802 C38.95521633 35.01590216 40.7720219 35.06742176 42.58789062 35.12939453 C43.58789062 36.12939453 43.58789062 36.12939453 43.72070312 38.16064453 C43.718125 38.97533203 43.71554687 39.79001953 43.71289062 40.62939453 C43.71675781 41.85142578 43.71675781 41.85142578 43.72070312 43.09814453 C43.58789062 45.12939453 43.58789062 45.12939453 42.58789062 46.12939453 C41.1198377 46.22762197 39.64711602 46.25737823 38.17578125 46.25878906 C37.23810913 46.26194122 36.30043701 46.26509338 35.33435059 46.26834106 C34.3145813 46.26631683 33.29481201 46.2642926 32.24414062 46.26220703 C30.68499939 46.26364212 30.68499939 46.26364212 29.09436035 46.2651062 C26.89184509 46.26578816 24.68932783 46.2639328 22.48681641 46.25976562 C19.10249343 46.25441761 15.71830319 46.25971012 12.33398438 46.26611328 C10.1998695 46.2654525 8.0657547 46.26417135 5.93164062 46.26220703 C4.91187134 46.26423126 3.89210205 46.26625549 2.84143066 46.26834106 C1.43492249 46.26361282 1.43492249 46.26361282 0 46.25878906 C-0.82971313 46.25799347 -1.65942627 46.25719788 -2.51428223 46.25637817 C-4.41210938 46.12939453 -4.41210938 46.12939453 -5.41210938 45.12939453 C-5.48536106 42.26671886 -5.50449143 39.42867554 -5.47460938 36.56689453 C-5.47009766 35.76058594 -5.46558594 34.95427734 -5.4609375 34.12353516 C-5.44911455 32.12545697 -5.43117852 30.1274167 -5.41210938 28.12939453 C-7.06210937 27.79939453 -8.71210938 27.46939453 -10.41210938 27.12939453 C-10.53710938 19.37939453 -10.53710938 19.37939453 -9.41210938 17.12939453 C-8.09210938 17.12939453 -6.77210938 17.12939453 -5.41210938 17.12939453 C-5.42371094 15.98599609 -5.4353125 14.84259766 -5.44726562 13.66455078 C-5.45664225 12.17366699 -5.46574259 10.68278144 -5.47460938 9.19189453 C-5.48298828 8.43714844 -5.49136719 7.68240234 -5.5 6.90478516 C-5.50863378 4.9794514 -5.4643527 3.05403872 -5.41210938 1.12939453 C-3.82528948 -0.45742536 -2.19962592 0.00210917 0 0 Z " fill="#808083" transform="translate(413.412109375,167.87060546875)"/>
<path d="M0 0 C0.77155426 -0.00807175 1.54310852 -0.01614349 2.33804321 -0.02445984 C3.98071025 -0.03832816 5.62340644 -0.04903795 7.26611328 -0.05688477 C9.74440237 -0.07391191 12.22129114 -0.1177456 14.69921875 -0.16210938 C24.84673796 -0.26195676 34.24357335 -0.07045971 42.4140625 6.73828125 C43.0740625 7.56328125 43.7340625 8.38828125 44.4140625 9.23828125 C44.9709375 9.83640625 45.5278125 10.43453125 46.1015625 11.05078125 C49.59658701 16.8758221 49.95792683 22.7903773 48.4140625 29.23828125 C46.10784827 36.66941598 41.57076677 40.7400462 34.89453125 44.3984375 C27.1296689 47.75245755 18.13079046 46.65009524 9.8515625 46.48828125 C8.06186891 46.46818872 6.27215358 46.44994281 4.48242188 46.43359375 C0.12575972 46.38980846 -4.22984644 46.32093349 -8.5859375 46.23828125 C-8.61120812 39.84790894 -8.62877067 33.45754942 -8.64086914 27.06713867 C-8.64591058 24.89135252 -8.65274357 22.71556978 -8.66137695 20.53979492 C-8.67345088 17.41975058 -8.67916755 14.29975087 -8.68359375 11.1796875 C-8.68875504 10.20052872 -8.69391632 9.22136993 -8.69923401 8.21253967 C-8.69930954 7.31168137 -8.69938507 6.41082306 -8.69946289 5.48266602 C-8.7016835 4.68546646 -8.70390411 3.88826691 -8.70619202 3.06690979 C-8.41203803 -1.40608959 -3.44919925 0.03407253 0 0 Z M4.4140625 11.23828125 C3.2564423 13.55352164 3.28503945 14.90944187 3.28125 17.484375 C3.27996094 18.32162109 3.27867187 19.15886719 3.27734375 20.02148438 C3.28121094 20.89740234 3.28507813 21.77332031 3.2890625 22.67578125 C3.28519531 23.54783203 3.28132812 24.41988281 3.27734375 25.31835938 C3.27863281 26.15689453 3.27992188 26.99542969 3.28125 27.859375 C3.28237793 28.62693115 3.28350586 29.3944873 3.28466797 30.18530273 C3.33879906 32.43903528 3.33879906 32.43903528 4.4140625 35.23828125 C7.78889663 35.3259568 11.16343465 35.37889753 14.5390625 35.42578125 C15.49039063 35.45091797 16.44171875 35.47605469 17.421875 35.50195312 C24.20059686 35.57256481 28.63854776 34.79467641 33.7890625 30.05078125 C35.93699831 26.33320005 36.49975479 23.35131185 35.4140625 19.23828125 C33.60527444 15.9025201 31.49525417 13.45974149 28.4140625 11.23828125 C24.21774759 10.28195229 20.25251719 10.47436476 15.9765625 10.73828125 C14.86345703 10.774375 13.75035156 10.81046875 12.60351562 10.84765625 C9.87010153 10.94150738 7.14390837 11.07262366 4.4140625 11.23828125 Z " fill="#808083" transform="translate(540.5859375,167.76171875)"/>
<path d="M0 0 C6.81762424 -0.02464247 13.6352228 -0.04283244 20.45288086 -0.05493164 C22.77417451 -0.05997333 25.09546497 -0.06680651 27.41674805 -0.07543945 C30.74528795 -0.08751225 34.07378602 -0.09322979 37.40234375 -0.09765625 C38.44712387 -0.10281754 39.49190399 -0.10797882 40.56834412 -0.11329651 C41.52926468 -0.11337204 42.49018524 -0.11344757 43.48022461 -0.11352539 C44.33071884 -0.115746 45.18121307 -0.11796661 46.05747986 -0.12025452 C48 0 48 0 49 1 C49.0979057 2.49738124 49.12974864 3.99942892 49.125 5.5 C49.12886719 6.72203125 49.12886719 6.72203125 49.1328125 7.96875 C49 10 49 10 48 11 C45.3337397 11.08855161 42.69352886 11.11524673 40.02734375 11.09765625 C39.22970108 11.0962413 38.43205841 11.09482635 37.61024475 11.09336853 C35.05262565 11.08775316 32.49509282 11.07519812 29.9375 11.0625 C28.20768355 11.05748698 26.47786574 11.05292373 24.74804688 11.04882812 C20.49866447 11.03777875 16.24934688 11.02050386 12 11 C12 12.98 12 14.96 12 17 C20.25 17 28.5 17 37 17 C38 26 38 26 37 28 C28.75 28 20.5 28 12 28 C12 30.31 12 32.62 12 35 C13.62796509 34.99214478 13.62796509 34.99214478 15.28881836 34.98413086 C19.30117982 34.96608164 23.31353767 34.95456829 27.32592773 34.94506836 C29.06519168 34.94002796 30.80445136 34.9331957 32.54370117 34.92456055 C35.03825937 34.91248208 37.53276173 34.90676892 40.02734375 34.90234375 C40.80963852 34.89718246 41.59193329 34.89202118 42.39793396 34.88670349 C44.26567114 34.88650774 46.13329204 34.93800306 48 35 C49 36 49 36 49.1328125 38.03125 C49.13023437 38.8459375 49.12765625 39.660625 49.125 40.5 C49.12886719 41.72203125 49.12886719 41.72203125 49.1328125 42.96875 C49 45 49 45 48 46 C46.49581261 46.09311889 44.98728644 46.11746028 43.48022461 46.11352539 C42.03884377 46.11341209 42.03884377 46.11341209 40.56834412 46.11329651 C39.523564 46.10813522 38.47878387 46.10297394 37.40234375 46.09765625 C36.33834854 46.0962413 35.27435333 46.09482635 34.17811584 46.09336853 C30.76454917 46.08775064 27.351047 46.07519511 23.9375 46.0625 C21.62955824 46.05748731 19.32161545 46.052924 17.01367188 46.04882812 C11.34242289 46.03777539 5.6712224 46.02049877 0 46 C0 40.06 0 34.12 0 28 C-1.65 28 -3.3 28 -5 28 C-5 24.7 -5 21.4 -5 18 C-3.35 17.67 -1.7 17.34 0 17 C0 11.39 0 5.78 0 0 Z " fill="#808083" transform="translate(915,168)"/>
<path d="M0 0 C5.9382626 0.00653274 8.75462466 1.57661506 12.87939453 5.54345703 C15.79059906 8.59302829 18.56876488 11.73752349 21.3125 14.9375 C22.50166016 16.22720703 22.50166016 16.22720703 23.71484375 17.54296875 C28.11188437 22.3356531 28.11188437 22.3356531 29.3125 25.9375 C31.27922915 27.0875831 31.27922915 27.0875831 33.3125 27.9375 C33.6425 28.2675 33.9725 28.5975 34.3125 28.9375 C34.35008423 27.71848999 34.35008423 27.71848999 34.38842773 26.47485352 C34.50399118 22.81639248 34.62689584 19.15821472 34.75 15.5 C34.78931641 14.22060547 34.82863281 12.94121094 34.86914062 11.62304688 C34.93198242 9.80063477 34.93198242 9.80063477 34.99609375 7.94140625 C35.03275146 6.81549072 35.06940918 5.6895752 35.10717773 4.52954102 C35.3125 1.9375 35.3125 1.9375 36.3125 0.9375 C38.14365883 0.83898829 39.97869933 0.80777371 41.8125 0.8125 C42.8128125 0.80992187 43.813125 0.80734375 44.84375 0.8046875 C47.3125 0.9375 47.3125 0.9375 48.3125 1.9375 C48.41045311 3.31359882 48.44048088 4.69463882 48.44189453 6.07421875 C48.44504669 6.95182861 48.44819885 7.82943848 48.45144653 8.73364258 C48.4494223 9.68779053 48.44739807 10.64193848 48.4453125 11.625 C48.44626923 12.59783936 48.44722595 13.57067871 48.44821167 14.57299805 C48.44889358 16.634278 48.44703853 18.69556008 48.44287109 20.75683594 C48.437523 23.92387688 48.44281572 27.090776 48.44921875 30.2578125 C48.44855797 32.25520865 48.44727681 34.25260471 48.4453125 36.25 C48.44733673 37.20414795 48.44936096 38.1582959 48.45144653 39.14135742 C48.44671829 40.45777222 48.44671829 40.45777222 48.44189453 41.80078125 C48.44109894 42.57719971 48.44030334 43.35361816 48.43948364 44.15356445 C48.3125 45.9375 48.3125 45.9375 47.3125 46.9375 C35.63337097 48.61726618 35.63337097 48.61726618 30.78125 45.10546875 C28.79507956 42.80227495 27.07322979 40.41512648 25.3125 37.9375 C23.66562204 36.25127684 21.99606132 34.58709899 20.3125 32.9375 C18.02014284 30.51992278 15.76068161 28.07218154 13.5 25.625 C12.90251953 24.97982422 12.30503906 24.33464844 11.68945312 23.66992188 C10.22958572 22.09326508 8.77091907 20.51549662 7.3125 18.9375 C7.28744385 19.75017334 7.2623877 20.56284668 7.23657227 21.40014648 C7.12100882 25.05860752 6.99810416 28.71678528 6.875 32.375 C6.81602539 34.2940918 6.81602539 34.2940918 6.75585938 36.25195312 C6.71396484 37.46689453 6.67207031 38.68183594 6.62890625 39.93359375 C6.57391968 41.62246704 6.57391968 41.62246704 6.51782227 43.34545898 C6.3125 45.9375 6.3125 45.9375 5.3125 46.9375 C3.48134117 47.03601171 1.64630067 47.06722629 -0.1875 47.0625 C-1.1878125 47.06507813 -2.188125 47.06765625 -3.21875 47.0703125 C-5.6875 46.9375 -5.6875 46.9375 -6.6875 45.9375 C-6.78545311 44.56140118 -6.81548088 43.18036118 -6.81689453 41.80078125 C-6.82004669 40.92317139 -6.82319885 40.04556152 -6.82644653 39.14135742 C-6.8244223 38.18720947 -6.82239807 37.23306152 -6.8203125 36.25 C-6.82126923 35.27716064 -6.82222595 34.30432129 -6.82321167 33.30200195 C-6.82389358 31.240722 -6.82203853 29.17943992 -6.81787109 27.11816406 C-6.812523 23.95112312 -6.81781572 20.784224 -6.82421875 17.6171875 C-6.82355797 15.61979135 -6.82227681 13.62239529 -6.8203125 11.625 C-6.82233673 10.67085205 -6.82436096 9.7167041 -6.82644653 8.73364258 C-6.82329437 7.85603271 -6.82014221 6.97842285 -6.81689453 6.07421875 C-6.81609894 5.29780029 -6.81530334 4.52138184 -6.81448364 3.72143555 C-6.54111817 -0.11895183 -3.26879202 0.35093183 0 0 Z " fill="#7F7F82" transform="translate(790.6875,167.0625)"/>
<path d="M0 0 C14 0 14 0 17.52734375 2.37890625 C18.32269531 3.42949219 19.11804688 4.48007813 19.9375 5.5625 C20.82563336 6.67412852 21.71495237 7.78481083 22.60546875 8.89453125 C23.39566406 9.91933594 24.18585938 10.94414062 25 12 C26.22328402 13.27615681 27.4691502 14.53163068 28.75 15.75 C31.87158773 18.80389065 34.70455786 22.06169559 37.51953125 25.3984375 C38.92784878 27.11110323 38.92784878 27.11110323 41 28 C41.33 18.76 41.66 9.52 42 0 C45.96 0 49.92 0 54 0 C54.024644 6.39037797 54.04283317 12.78072852 54.05493164 19.17114258 C54.05997308 21.34692873 54.06680607 23.52271147 54.07543945 25.69848633 C54.08751338 28.81853067 54.09323005 31.93853038 54.09765625 35.05859375 C54.10281754 36.03775253 54.10797882 37.01691132 54.11329651 38.02574158 C54.11337204 38.92659988 54.11344757 39.82745819 54.11352539 40.75561523 C54.115746 41.55281479 54.11796661 42.35001434 54.12025452 43.17137146 C54 45 54 45 53 46 C48.40699127 47.10613129 44.59099442 47.13940568 40 46 C34.49690585 42.32792232 30.25555267 36.99921404 26 32 C25.26523437 31.175 24.53046875 30.35 23.7734375 29.5 C22.70637409 28.29661571 21.65233593 27.08122282 20.625 25.84375 C18.20810826 23.10150745 15.59891957 20.57004269 13 18 C12.97494385 18.81267334 12.9498877 19.62534668 12.92407227 20.46264648 C12.80850882 24.12110752 12.68560416 27.77928528 12.5625 31.4375 C12.50352539 33.3565918 12.50352539 33.3565918 12.44335938 35.31445312 C12.40146484 36.52939453 12.35957031 37.74433594 12.31640625 38.99609375 C12.26141968 40.68496704 12.26141968 40.68496704 12.20532227 42.40795898 C12 45 12 45 11 46 C7.37 46 3.74 46 0 46 C0 30.82 0 15.64 0 0 Z " fill="#7F7F82" transform="translate(467,168)"/>
<path d="M0 0 C2.91642322 2.7030264 4.30359599 4.59828797 5.5625 8.375 C5.66646036 14.09281999 3.72966153 16.94366329 0.03515625 20.9921875 C-1.4375 22.375 -1.4375 22.375 -3.4375 23.375 C-2.1175 24.365 -0.7975 25.355 0.5625 26.375 C1.5525 24.065 2.5425 21.755 3.5625 19.375 C7.5225 19.375 11.4825 19.375 15.5625 19.375 C15.5625 24.2068812 15.54674968 25.02323172 13.0625 28.6875 C12.5984375 29.38488281 12.134375 30.08226562 11.65625 30.80078125 C11.2953125 31.32027344 10.934375 31.83976562 10.5625 32.375 C12.8725 33.035 15.1825 33.695 17.5625 34.375 C17.5625 37.675 17.5625 40.975 17.5625 44.375 C12.13355622 44.66583627 8.4443039 44.26638079 3.51953125 41.93359375 C-0.49169477 40.78867295 -4.42793594 42.65936226 -8.25 43.9375 C-16.07786142 46.28817436 -22.99342543 45.99069336 -30.4375 42.375 C-33.4375 39.75 -33.4375 39.75 -35.4375 37.375 C-35.7675 37.045 -36.0975 36.715 -36.4375 36.375 C-37.40654636 26.76396645 -37.40654636 26.76396645 -34.5625 22.6875 C-32.4375 21.375 -32.4375 21.375 -30.4375 21.375 C-30.4375 20.715 -30.4375 20.055 -30.4375 19.375 C-28.1275 18.715 -25.8175 18.055 -23.4375 17.375 C-23.48390625 16.63894531 -23.5303125 15.90289062 -23.578125 15.14453125 C-23.87277062 7.17857652 -23.87277062 7.17857652 -21.8125 3.375 C-15.22967467 -2.16843186 -7.90876468 -3.73868876 0 0 Z M-10.4375 8.375 C-11.4275 9.86 -11.4275 9.86 -12.4375 11.375 C-11.4475 12.86 -11.4475 12.86 -10.4375 14.375 C-9.4475 14.045 -8.4575 13.715 -7.4375 13.375 C-7.4375 11.725 -7.4375 10.075 -7.4375 8.375 C-8.4275 8.375 -9.4175 8.375 -10.4375 8.375 Z M-24.4375 28.375 C-24.4375 30.025 -24.4375 31.675 -24.4375 33.375 C-19.66176677 35.99395048 -15.59315119 35.20619431 -10.4375 34.375 C-12.51682717 30.09483839 -12.51682717 30.09483839 -15.4375 26.375 C-19.04320855 25.82027561 -21.33358238 26.53564141 -24.4375 28.375 Z " fill="#7D7D81" transform="translate(373.4375,169.625)"/>
<path d="M0 0 C3.12936637 2.19431546 6.10252822 4.50845421 9 7 C8.67 8.65 8.34 10.3 8 12 C4.17679443 13.42258812 1.08718695 14.24042276 -3 14 C-3 13.34 -3 12.68 -3 12 C-3.66 12 -4.32 12 -5 12 C-5 11.34 -5 10.68 -5 10 C-5.53625 9.87625 -6.0725 9.7525 -6.625 9.625 C-9 9 -9 9 -11.6875 7.9375 C-18.84100423 5.91292333 -26.38838858 6.38849613 -33 10 C-34.61006032 12.43562001 -34.61006032 12.43562001 -35 15 C-35.33 15.66 -35.66 16.32 -36 17 C-36.41314256 21.6478538 -35.78987316 24.24440152 -33 28 C-32.34 28.33 -31.68 28.66 -31 29 C-31 29.66 -31 30.32 -31 31 C-24.03111859 32.58502754 -15.82958841 33.77897431 -9.19140625 30.6953125 C-6.82534712 29.11709287 -6.82534712 29.11709287 -4.76953125 27.41015625 C-3 26 -3 26 0 25 C2.26171875 25.99609375 2.26171875 25.99609375 4.6875 27.4375 C5.49574219 27.91058594 6.30398438 28.38367188 7.13671875 28.87109375 C7.75160156 29.24363281 8.36648438 29.61617187 9 30 C9 30.99 9 31.98 9 33 C8.34 33 7.68 33 7 33 C7 33.66 7 34.32 7 35 C6.34 35 5.68 35 5 35 C5 35.66 5 36.32 5 37 C3.10807525 37.98669759 1.21128022 38.9640602 -0.6875 39.9375 C-2.27111328 40.75541016 -2.27111328 40.75541016 -3.88671875 41.58984375 C-13.98667197 46.16460299 -25.79963694 44.50775075 -36 41 C-38.50741739 39.81629534 -40.6781289 38.53032413 -43 37 C-43 36.34 -43 35.68 -43 35 C-43.66 35 -44.32 35 -45 35 C-49.69072878 27.81732155 -50.25128963 20.44620502 -49 12 C-44.61419963 4.21543714 -38.76928198 -0.52211847 -30.29296875 -3.3046875 C-20.21980551 -5.43164249 -8.99209935 -5.47413767 0 0 Z " fill="#7C7C7F" transform="translate(897,171)"/>
<path d="M0 0 C3.96 0 7.92 0 12 0 C12.76429379 3.82146893 13.10251457 6.55487093 13.02734375 10.34375 C13.01509766 11.34277344 13.00285156 12.34179688 12.99023438 13.37109375 C12.95507695 15.45710072 12.91601404 17.54304553 12.87304688 19.62890625 C12.86208984 20.62792969 12.85113281 21.62695312 12.83984375 22.65625 C12.81458618 24.01459961 12.81458618 24.01459961 12.78881836 25.40039062 C13.02393067 28.29458242 13.73217353 30.39644295 15 33 C18.39601782 35.63071803 22.21510504 35.33348408 26.375 35.375 C28.30472656 35.41753906 28.30472656 35.41753906 30.2734375 35.4609375 C34.68481316 34.91529565 36.62336806 33.86388521 40 31 C40.89745287 27.8654578 40.89745287 27.8654578 40.76953125 24.3359375 C40.79080078 23.04945313 40.81207031 21.76296875 40.83398438 20.4375 C40.82792727 19.08332794 40.82075313 17.72916045 40.8125 16.375 C40.83114962 13.71600737 40.86383112 11.05733579 40.89453125 8.3984375 C40.89300049 7.21942871 40.89146973 6.04041992 40.88989258 4.82568359 C41 2 41 2 42 0 C43.81242052 -0.02687279 45.62495233 -0.04633715 47.4375 -0.0625 C48.44683594 -0.07410156 49.45617187 -0.08570313 50.49609375 -0.09765625 C53 0 53 0 54 1 C54.12570227 3.38986682 54.18862695 5.74927176 54.203125 8.140625 C54.20882507 8.85982117 54.21452515 9.57901733 54.22039795 10.32000732 C54.22986361 11.84662397 54.23638812 13.3732612 54.24023438 14.89990234 C54.24990279 17.22660574 54.28089405 19.55241183 54.3125 21.87890625 C54.31903369 23.36197392 54.32428272 24.84504792 54.328125 26.328125 C54.3404718 27.02101624 54.3528186 27.71390747 54.36553955 28.42779541 C54.34548751 32.81811581 53.65511506 35.49787354 51 39 C42.50232245 46.94348119 34.02392534 47.29291401 22.77734375 47.2265625 C16.26042964 46.83568244 10.75504504 44.98794664 5 42 C5 41.34 5 40.68 5 40 C4.34 40 3.68 40 3 40 C3 39.34 3 38.68 3 38 C2.34 38 1.68 38 1 38 C-1.37347789 30.55121958 -1.26303996 23.3936884 -1.1875 15.625 C-1.18685547 14.34238281 -1.18621094 13.05976563 -1.18554688 11.73828125 C-1.14060834 2.28121668 -1.14060834 2.28121668 0 0 Z " fill="#7E7E81" transform="translate(598,168)"/>
<path d="M0 0 C1.86591797 -0.07347656 1.86591797 -0.07347656 3.76953125 -0.1484375 C7.1875 0.375 7.1875 0.375 9.3359375 2.33984375 C11.72393686 6.25434903 13.90433179 10.23485998 16 14.3125 C16.43578369 15.14990723 16.87156738 15.98731445 17.32055664 16.85009766 C20.52500109 23.0280356 23.65075681 29.24355811 26.71484375 35.4921875 C28.13704847 38.40006933 28.13704847 38.40006933 29.94140625 41.0703125 C30.55822266 42.21113281 30.55822266 42.21113281 31.1875 43.375 C30.8575 44.365 30.5275 45.355 30.1875 46.375 C26.2275 46.375 22.2675 46.375 18.1875 46.375 C17.63707031 44.91191406 17.08664062 43.44882813 16.51953125 41.94140625 C14.73534872 38.7298777 13.90855165 37.58660896 10.33740234 36.53857422 C6.82326306 36.26254067 3.39889274 36.23098984 -0.125 36.3125 C-1.34251953 36.30541016 -2.56003906 36.29832031 -3.81445312 36.29101562 C-6.81616221 36.27924422 -9.81166774 36.30863941 -12.8125 36.375 C-13.11696045 37.31633789 -13.4214209 38.25767578 -13.73510742 39.22753906 C-14.78368203 42.29081208 -15.44987165 44.17476961 -17.8125 46.375 C-20.73046875 46.765625 -20.73046875 46.765625 -24 46.625 C-25.08667969 46.58890625 -26.17335938 46.5528125 -27.29296875 46.515625 C-28.12441406 46.46921875 -28.95585938 46.4228125 -29.8125 46.375 C-29.39733757 40.1164264 -26.33585955 35.39407031 -23.3125 30.0625 C-22.22167463 28.10471328 -21.13184255 26.14637281 -20.04296875 24.1875 C-19.49946777 23.21425781 -18.9559668 22.24101562 -18.39599609 21.23828125 C-15.68214366 16.33108709 -13.08603974 11.36272121 -10.4921875 6.39135742 C-7.35183478 0.40468973 -6.84344746 0.1832437 0 0 Z M-0.8125 13.375 C-1.81490089 15.35295176 -2.81436043 17.33239442 -3.8125 19.3125 C-4.369375 20.41464844 -4.92625 21.51679688 -5.5 22.65234375 C-6.88487383 25.02138243 -6.88487383 25.02138243 -6.8125 26.375 C-2.1925 26.375 2.4275 26.375 7.1875 26.375 C6.35798954 22.22744772 5.88246491 20.42255598 3.75 17.0625 C3.31816406 16.36511719 2.88632812 15.66773438 2.44140625 14.94921875 C2.02761719 14.42972656 1.61382813 13.91023437 1.1875 13.375 C0.5275 13.375 -0.1325 13.375 -0.8125 13.375 Z " fill="#7D7D81" transform="translate(748.8125,167.625)"/>
<path d="M0 0 C0 0.66 0 1.32 0 2 C0.61875 2.268125 1.2375 2.53625 1.875 2.8125 C4 4 4 4 6 7 C-2.00581395 11.22093023 -2.00581395 11.22093023 -5.8125 10.375 C-6.534375 9.92125 -7.25625 9.4675 -8 9 C-12.77416093 6.18314149 -17.60185261 6.35940943 -23 7 C-26.30812833 8.62504549 -28.17202272 9.95602864 -30.4375 12.8125 C-31.30089787 16.1701584 -30.83509639 18.65961443 -30 22 C-27.2777083 25.73054788 -24.44786259 26.97357017 -20 28 C-13.48721679 28.63026934 -9.58308395 27.32609256 -4 24 C-5.07121094 23.93941406 -6.14242187 23.87882812 -7.24609375 23.81640625 C-8.64324391 23.73201463 -10.04037857 23.64736594 -11.4375 23.5625 C-12.14455078 23.52318359 -12.85160156 23.48386719 -13.58007812 23.44335938 C-18.88671875 23.11328125 -18.88671875 23.11328125 -20 22 C-20.125 18.5 -20.125 18.5 -20 15 C-19 14 -19 14 -16.22436523 13.88647461 C-15.01466064 13.89171143 -13.80495605 13.89694824 -12.55859375 13.90234375 C-11.25341797 13.90556641 -9.94824219 13.90878906 -8.60351562 13.91210938 C-7.2148431 13.92046599 -5.82617123 13.92893095 -4.4375 13.9375 C-3.04492344 13.94251334 -1.65234519 13.94707653 -0.25976562 13.95117188 C3.1601987 13.96300566 6.58007844 13.9794912 10 14 C11.34879281 18.04637844 10.37070367 21.10160084 9 25 C7.05777578 28.61655545 5.93623356 30.53188322 2.25 32.375 C1.5075 32.58125 0.765 32.7875 0 33 C0 33.66 0 34.32 0 35 C-10.6928536 39.71743541 -22.22395469 39.00525578 -33 35 C-33 34.34 -33 33.68 -33 33 C-33.61875 32.7525 -34.2375 32.505 -34.875 32.25 C-37.35068687 30.79371361 -37.95125002 29.62187494 -39 27 C-39.66 27 -40.32 27 -41 27 C-43.31604754 21.06512818 -43.81332015 16.48276677 -41.8125 10.375 C-38.3814287 3.98610861 -33.12928729 -0.27510693 -26.234375 -2.59375 C-17.30783569 -4.21675715 -8.32312455 -3.5044735 0 0 Z " fill="#020202" transform="translate(954,121)"/>
<path d="M0 0 C1.11748123 -0.00307663 2.23496246 -0.00615326 3.38630676 -0.00932312 C4.57713364 -0.0021376 5.76796051 0.00504791 6.99487305 0.01245117 C8.2269902 0.01290939 9.45910736 0.01336761 10.7285614 0.01383972 C13.32491015 0.01685451 15.9212572 0.02471759 18.51757812 0.03710938 C22.50948504 0.0554332 26.50097588 0.05761851 30.49291992 0.05737305 C33.01440632 0.06228588 35.53589114 0.06811318 38.05737305 0.07495117 C39.85879509 0.07662041 39.85879509 0.07662041 41.6966095 0.07832336 C43.34919014 0.08789314 43.34919014 0.08789314 45.03515625 0.09765625 C46.00967239 0.10146805 46.98418854 0.10527985 47.98823547 0.10920715 C50.1940918 0.24291992 50.1940918 0.24291992 51.1940918 1.24291992 C51.7591951 7.88288376 50.17536938 14.28036476 47.1940918 20.24291992 C39.70094572 20.28928554 32.20781455 20.32481061 24.71455765 20.34654427 C21.23502786 20.356976 17.7555963 20.37112393 14.27612305 20.39379883 C10.27481143 20.41971087 6.27360282 20.42939774 2.2722168 20.43823242 C1.02418274 20.44855499 -0.22385132 20.45887756 -1.50970459 20.46951294 C-2.67060608 20.469664 -3.83150757 20.46981506 -5.02758789 20.4699707 C-6.04906921 20.47441193 -7.07055054 20.47885315 -8.12298584 20.48342896 C-10.84615038 20.23931243 -12.48247967 19.64051614 -14.8059082 18.24291992 C-13.9045245 6.2402843 -13.9045245 6.2402843 -11.8059082 2.24291992 C-7.7868608 0.55636928 -4.33448963 -0.00631248 0 0 Z " fill="#1CB2E1" transform="translate(222.805908203125,221.757080078125)"/>
<path d="M0 0 C8.971875 -0.12375 8.971875 -0.12375 18.125 -0.25 C20.00203613 -0.28641602 21.87907227 -0.32283203 23.81298828 -0.36035156 C25.31541808 -0.37204362 26.81786064 -0.38223423 28.3203125 -0.390625 C29.08851318 -0.41108887 29.85671387 -0.43155273 30.64819336 -0.45263672 C35.9110509 -0.45602664 38.79221127 0.57004126 43 4 C46.47361388 7.66495702 46.55980653 10.62893253 46.4296875 15.515625 C45.73127216 19.55373551 44.00649513 21.27983774 41 24 C40.34 24 39.68 24 39 24 C39.5775 24.91523438 40.155 25.83046875 40.75 26.7734375 C41.5002341 27.97381205 42.25022133 29.17434092 43 30.375 C43.3815625 30.97828125 43.763125 31.5815625 44.15625 32.203125 C47 36.7734375 47 36.7734375 47 39 C42.81525039 39.69048369 39.15781629 39.93804392 35 39 C31.52170023 35.79047794 29.14676632 32.20513638 27 28 C27 27.34 27 26.68 27 26 C21.72 25.67 16.44 25.34 11 25 C11.020625 27.124375 11.04125 29.24875 11.0625 31.4375 C11.08373783 33.62499611 11.07258946 35.81360547 11 38 C10.505 38.495 10.505 38.495 10 39 C6.7 39 3.4 39 0 39 C0 26.13 0 13.26 0 0 Z M11 9 C11 11.64 11 14.28 11 17 C14.4165052 17.08724706 17.83272313 17.14047325 21.25 17.1875 C22.21808594 17.21263672 23.18617188 17.23777344 24.18359375 17.26367188 C25.11816406 17.27333984 26.05273438 17.28300781 27.015625 17.29296875 C27.87446289 17.3086792 28.73330078 17.32438965 29.61816406 17.34057617 C32.48283816 16.93095949 33.85063164 15.886136 36 14 C34.6910428 10.87802522 34.6910428 10.87802522 32 9 C30.40552536 8.91599471 28.80759455 8.89272533 27.2109375 8.90234375 C25.79941406 8.90717773 25.79941406 8.90717773 24.359375 8.91210938 C23.37453125 8.92048828 22.3896875 8.92886719 21.375 8.9375 C19.88613281 8.94426758 19.88613281 8.94426758 18.3671875 8.95117188 C15.9113984 8.96297855 13.45572896 8.979446 11 9 Z " fill="#010101" transform="translate(653,119)"/>
<path d="M0 0 C4.29 0 8.58 0 13 0 C13 0.66 13 1.32 13 2 C13.66 2 14.32 2 15 2 C15 2.66 15 3.32 15 4 C15.66 4 16.32 4 17 4 C17 4.66 17 5.32 17 6 C17.66 6 18.32 6 19 6 C20.7265625 7.6796875 20.7265625 7.6796875 22.625 9.875 C23.57246094 10.95394531 23.57246094 10.95394531 24.5390625 12.0546875 C26 14 26 14 26 16 C26.66 16 27.32 16 28 16 C28 16.66 28 17.32 28 18 C28.66 18 29.32 18 30 18 C30 18.66 30 19.32 30 20 C30.66 20 31.32 20 32 20 C32 20.66 32 21.32 32 22 C32.66 22 33.32 22 34 22 C34 22.66 34 23.32 34 24 C34.66 24 35.32 24 36 24 C36 16.08 36 8.16 36 0 C39.3 0 42.6 0 46 0 C47.55043334 3.10086669 47.1420075 6.37900766 47.1328125 9.78125 C47.13376923 10.55053833 47.13472595 11.31982666 47.13571167 12.11242676 C47.13639254 13.73982831 47.13454473 15.36723257 47.13037109 16.99462891 C47.1250215 19.48997073 47.13031919 21.98513255 47.13671875 24.48046875 C47.13605795 26.05989623 47.13477675 27.6393236 47.1328125 29.21875 C47.13483673 29.9677356 47.13686096 30.71672119 47.13894653 31.48840332 C47.11496122 36.77007757 47.11496122 36.77007757 46 39 C42.04 39 38.08 39 34 39 C33.34 37.68 32.68 36.36 32 35 C31.34 35 30.68 35 30 35 C30 34.34 30 33.68 30 33 C29.34 33 28.68 33 28 33 C28 32.34 28 31.68 28 31 C27.34 31 26.68 31 26 31 C24.2734375 29.3203125 24.2734375 29.3203125 22.375 27.125 C21.74335937 26.40570313 21.11171875 25.68640625 20.4609375 24.9453125 C19 23 19 23 19 21 C18.34 21 17.68 21 17 21 C17 20.34 17 19.68 17 19 C16.360625 18.71125 15.72125 18.4225 15.0625 18.125 C13 17 13 17 12 15 C11.67 22.92 11.34 30.84 11 39 C7.37 39 3.74 39 0 39 C0 26.13 0 13.26 0 0 Z " fill="#010101" transform="translate(778,119)"/>
<path d="M0 0 C13 0 13 0 17.5 4.125 C19.00335136 6.08076177 20.50289742 8.03945076 22 10 C24.30475148 12.58865527 26.68388138 15.10434345 29.0625 17.625 C32.0015625 20.780625 32.0015625 20.780625 35 24 C35.33 16.08 35.66 8.16 36 0 C39.3 0 42.6 0 46 0 C47.81565436 1.81565436 47.12861899 4.31269962 47.13894653 6.72888184 C47.1369223 7.52991333 47.13489807 8.33094482 47.1328125 9.15625 C47.13376923 9.97371704 47.13472595 10.79118408 47.13571167 11.63342285 C47.13639345 13.36515378 47.13453929 15.09688724 47.13037109 16.82861328 C47.12502279 19.48866482 47.13031612 22.1485475 47.13671875 24.80859375 C47.13605797 26.48697954 47.1347768 28.16536523 47.1328125 29.84375 C47.13483673 30.64478149 47.13686096 31.44581299 47.13894653 32.27111816 C47.11495079 37.88504921 47.11495079 37.88504921 46 39 C41.784585 39.93754213 38.20264947 40.02872278 34 39 C29.52931081 35.8721114 26.11357238 31.42519539 23 27 C23 26.34 23 25.68 23 25 C22.34 25 21.68 25 21 25 C21 24.34 21 23.68 21 23 C20.34 23 19.68 23 19 23 C19 22.34 19 21.68 19 21 C18.34 21 17.68 21 17 21 C17 20.34 17 19.68 17 19 C16.34 19 15.68 19 15 19 C13.375 17 13.375 17 12 15 C11.97494385 15.69150146 11.9498877 16.38300293 11.92407227 17.09545898 C11.80847839 20.20967866 11.68558758 23.32356789 11.5625 26.4375 C11.52318359 27.52611328 11.48386719 28.61472656 11.44335938 29.73632812 C11.40146484 30.77080078 11.35957031 31.80527344 11.31640625 32.87109375 C11.26141968 34.30859985 11.26141968 34.30859985 11.20532227 35.77514648 C11 38 11 38 10 39 C6.7 39 3.4 39 0 39 C0 26.13 0 13.26 0 0 Z " fill="#010101" transform="translate(856,119)"/>
<path d="M0 0 C1.14072968 0.00015106 2.28145935 0.00030212 3.45675659 0.00045776 C4.6725943 0.01078033 5.88843201 0.02110291 7.14111328 0.03173828 C8.39779816 0.03456818 9.65448303 0.03739807 10.94924927 0.04031372 C14.27343442 0.04958956 17.59734002 0.06752697 20.92144775 0.08972168 C24.32016599 0.11026266 27.71891322 0.119333 31.11767578 0.12939453 C37.77400246 0.15141699 44.43019799 0.18486645 51.08642578 0.22705078 C52.05886026 4.46092218 51.88235583 7.18570629 50.77392578 11.41455078 C50.50966797 12.45998047 50.24541016 13.50541016 49.97314453 14.58251953 C49.08642578 17.22705078 49.08642578 17.22705078 47.08642578 19.22705078 C44.49215698 19.46755981 44.49215698 19.46755981 41.16796875 19.45410156 C39.92683319 19.4539505 38.68569763 19.45379944 37.4069519 19.4536438 C36.04750408 19.44342978 34.68805788 19.43299778 33.32861328 19.42236328 C31.94141849 19.41863362 30.55422107 19.41578643 29.16702271 19.41378784 C25.51402527 19.40614762 21.86118661 19.38649594 18.20825195 19.36437988 C14.48146716 19.34392974 10.75465675 19.33478792 7.02783203 19.32470703 C-0.28604247 19.30325029 -7.59978611 19.26910981 -14.91357422 19.22705078 C-14.97914771 10.1974663 -14.97914771 10.1974663 -13.78857422 6.35205078 C-13.57974609 5.61212891 -13.37091797 4.87220703 -13.15576172 4.10986328 C-10.37472568 -0.10541777 -4.6372994 -0.02061022 0 0 Z " fill="#1BB4E5" transform="translate(234.91357421875,172.77294921875)"/>
<path d="M0 0 C5.96242037 4.21637536 8.50121954 8.2640899 9.8046875 15.37109375 C10.22060684 20.96936807 7.85762763 24.72581038 4.8125 29.25 C-2.27578007 36.18076273 -10.23595142 37.28197794 -19.83984375 37.234375 C-24.48415128 36.88992698 -28.65268438 35.61581643 -33 34 C-33 33.34 -33 32.68 -33 32 C-34.65 31.34 -36.3 30.68 -38 30 C-38 29.34 -38 28.68 -38 28 C-38.66 28 -39.32 28 -40 28 C-43.55673319 22.51670299 -43.82024807 17.33157776 -43 11 C-40.78899304 4.31701287 -35.6312598 0.41308397 -29.625 -2.8125 C-20.33123595 -5.92832841 -8.22988182 -5.43979395 0 0 Z M-29 9 C-31.69080456 13.03620685 -31.66642423 16.26005764 -31 21 C-29.11906395 24.40015363 -27.74105436 25.64631496 -24.25 27.3125 C-17.3367317 28.77492214 -12.1987603 28.57620787 -6 25 C-3.30531247 21.89074515 -2.11595488 19.96629067 -1.625 15.875 C-2.24033249 11.15745094 -3.06097949 9.73488562 -6.875 6.75 C-14.09082568 2.93786568 -23.01326729 3.48590408 -29 9 Z " fill="#020202" transform="translate(429,122)"/>
<path d="M0 0 C11.55 0 23.1 0 35 0 C35.495 3.465 35.495 3.465 36 7 C35.01 7 34.02 7 33 7 C31.08103838 14.92769969 31.08103838 14.92769969 31 23 C31.99 23.66 32.98 24.32 34 25 C32.783125 25.226875 31.56625 25.45375 30.3125 25.6875 C20.9337577 27.77820865 12.10846419 31.82881325 3.4375 35.88671875 C-0.68225321 37.7683368 -3.39214991 39 -8 39 C-8.2801409 32.50375958 -7.27695653 26.90995704 -5.6875 20.625 C-5.47416016 19.74328125 -5.26082031 18.8615625 -5.04101562 17.953125 C-3.55154708 11.88854261 -1.80070496 6.00234988 0 0 Z " fill="#000102" transform="translate(178,217)"/>
<path d="M0 0 C1.79244141 0.01740234 1.79244141 0.01740234 3.62109375 0.03515625 C5.41740234 0.04869141 5.41740234 0.04869141 7.25 0.0625 C8.17683594 0.07410156 9.10367188 0.08570312 10.05859375 0.09765625 C15.14874587 8.98522345 20.06951349 17.89788016 24.55078125 27.109375 C25.99337142 30.09543253 25.99337142 30.09543253 27.75390625 32.7421875 C29.05859375 35.09765625 29.05859375 35.09765625 29.05859375 39.09765625 C25.42859375 39.09765625 21.79859375 39.09765625 18.05859375 39.09765625 C15.05859375 33.34765625 15.05859375 33.34765625 15.05859375 31.09765625 C11.30691357 31.06232211 7.55993464 31.10413264 3.80859375 31.16015625 C2.21337891 31.1437207 2.21337891 31.1437207 0.5859375 31.12695312 C-4.99700162 31.03306418 -4.99700162 31.03306418 -9.56835938 33.71826172 C-10.85057951 35.8377051 -10.85057951 35.8377051 -11.94140625 39.09765625 C-15.57140625 39.09765625 -19.20140625 39.09765625 -22.94140625 39.09765625 C-20.65157556 29.93833349 -15.10616409 21.70279906 -10.50805664 13.51904297 C-8.67020047 10.24297279 -6.87970281 6.97424937 -5.19921875 3.61328125 C-3.44984649 0.11453674 -3.44984649 0.11453674 0 0 Z M2.05859375 11.09765625 C0.40859375 14.72765625 -1.24140625 18.35765625 -2.94140625 22.09765625 C1.01859375 22.09765625 4.97859375 22.09765625 9.05859375 22.09765625 C7.83924889 18.06443862 6.49904448 14.55496146 4.05859375 11.09765625 C3.39859375 11.09765625 2.73859375 11.09765625 2.05859375 11.09765625 Z " fill="#020202" transform="translate(723.94140625,118.90234375)"/>
<path d="M0 0 C4.62 0 9.24 0 14 0 C14.50789062 0.95519531 15.01578125 1.91039063 15.5390625 2.89453125 C18.73472941 8.89917299 21.93326578 14.90182334 25.1875 20.875 C25.65800781 21.73996094 26.12851562 22.60492188 26.61328125 23.49609375 C27.5495727 25.18669325 28.50591106 26.86632263 29.48046875 28.53515625 C29.94066406 29.32792969 30.40085937 30.12070313 30.875 30.9375 C31.28492188 31.62714844 31.69484375 32.31679687 32.1171875 33.02734375 C33 35 33 35 33 39 C31.44232098 39.19055103 29.87779115 39.32553027 28.3125 39.4375 C27.44238281 39.51871094 26.57226562 39.59992188 25.67578125 39.68359375 C23 39 23 39 21.9675293 37.44360352 C21.61730713 36.81252686 21.26708496 36.1814502 20.90625 35.53125 C19.23424583 32.93214835 18.48581934 32.1276806 15.4519043 31.33032227 C12.34685901 31.08719449 9.30175489 31.03015893 6.1875 31.0625 C4.57584961 31.03833008 4.57584961 31.03833008 2.93164062 31.01367188 C0.28646242 30.97840283 -2.35481915 30.97489255 -5 31 C-5 32.32 -5 33.64 -5 35 C-5.66 35 -6.32 35 -7 35 C-7.33 36.32 -7.66 37.64 -8 39 C-11.63 39 -15.26 39 -19 39 C-18.2112735 35.84509401 -17.49936402 33.7549807 -16.0625 30.9375 C-15.62292969 30.07511719 -15.18335938 29.21273437 -14.73046875 28.32421875 C-12.02765698 23.13213565 -9.30404799 17.95103136 -6.56665039 12.77709961 C-6.15020264 11.98956299 -5.73375488 11.20202637 -5.3046875 10.390625 C-4.93327637 9.68969727 -4.56186523 8.98876953 -4.17919922 8.26660156 C-2.7541633 5.5274642 -1.38084038 2.76168077 0 0 Z M7 10 C5.99466333 11.62170379 4.99588093 13.24747237 4 14.875 C3.443125 15.77992188 2.88625 16.68484375 2.3125 17.6171875 C0.83917671 19.83857467 0.83917671 19.83857467 1 22 C4.96 22 8.92 22 13 22 C12.566875 20.7625 12.13375 19.525 11.6875 18.25 C11.44386719 17.55390625 11.20023438 16.8578125 10.94921875 16.140625 C9.91211733 13.80181192 8.59875287 11.98836492 7 10 Z " fill="#020202" transform="translate(507,119)"/>
<path d="M0 0 C6.39037797 -0.024644 12.78072852 -0.04283317 19.17114258 -0.05493164 C21.34692873 -0.05997308 23.52271147 -0.06680607 25.69848633 -0.07543945 C28.81853067 -0.08751338 31.93853038 -0.09323005 35.05859375 -0.09765625 C36.52733192 -0.10539818 36.52733192 -0.10539818 38.02574158 -0.11329651 C39.37702904 -0.11340981 39.37702904 -0.11340981 40.75561523 -0.11352539 C41.95141457 -0.11685631 41.95141457 -0.11685631 43.17137146 -0.12025452 C45 0 45 0 46 1 C46.125 4.5 46.125 4.5 46 8 C45 9 45 9 41.18359375 9.09765625 C39.60153318 9.09098089 38.01948841 9.07901875 36.4375 9.0625 C35.63119141 9.05798828 34.82488281 9.05347656 33.99414062 9.04882812 C31.99606244 9.03700518 29.99802217 9.01906914 28 9 C28.24363281 10.92005859 28.24363281 10.92005859 28.4921875 12.87890625 C29.05008425 17.91081954 29.14880485 22.87896934 29.125 27.9375 C29.13080078 29.21077148 29.13080078 29.21077148 29.13671875 30.50976562 C29.13542969 31.31994141 29.13414062 32.13011719 29.1328125 32.96484375 C29.13168457 33.6930835 29.13055664 34.42132324 29.12939453 35.17163086 C29 37 29 37 28 39 C24.37 39 20.74 39 17 39 C17 29.1 17 19.2 17 9 C11.39 9 5.78 9 0 9 C0 6.03 0 3.06 0 0 Z " fill="#010101" transform="translate(601,119)"/>
<path d="M0 0 C1.34644592 -0.00472824 1.34644592 -0.00472824 2.72009277 -0.009552 C4.18412537 -0.00651566 4.18412537 -0.00651566 5.67773438 -0.00341797 C6.67276978 -0.00437469 7.66780518 -0.00533142 8.69299316 -0.00631714 C10.80135155 -0.00699907 12.90971203 -0.0051439 15.01806641 -0.00097656 C18.25753465 0.0043715 21.49686423 -0.00092114 24.73632812 -0.00732422 C26.77929718 -0.00666344 28.82226615 -0.00538228 30.86523438 -0.00341797 C31.8412561 -0.0054422 32.81727783 -0.00746643 33.82287598 -0.009552 C34.72050659 -0.00639984 35.61813721 -0.00324768 36.54296875 0 C37.73424377 0.00119339 37.73424377 0.00119339 38.94958496 0.00241089 C40.77148438 0.12939453 40.77148438 0.12939453 41.77148438 1.12939453 C41.89648438 4.62939453 41.89648438 4.62939453 41.77148438 8.12939453 C40.77148438 9.12939453 40.77148438 9.12939453 36.95507812 9.22705078 C35.3730139 9.22130591 33.79097406 9.20829046 32.20898438 9.19189453 C28.03242188 9.16095703 28.03242188 9.16095703 23.77148438 9.12939453 C23.77148438 19.02939453 23.77148438 28.92939453 23.77148438 39.12939453 C20.47148437 39.12939453 17.17148437 39.12939453 13.77148438 39.12939453 C12.77148438 38.12939453 12.77148438 38.12939453 12.65795898 35.35375977 C12.6631958 34.14405518 12.66843262 32.93435059 12.67382812 31.68798828 C12.67705078 30.3828125 12.68027344 29.07763672 12.68359375 27.73291016 C12.69195036 26.34423763 12.70041532 24.95556576 12.70898438 23.56689453 C12.71399772 22.17431797 12.71856091 20.78173972 12.72265625 19.38916016 C12.73449004 15.96919583 12.75097557 12.54931609 12.77148438 9.12939453 C11.07378906 9.14679688 11.07378906 9.14679688 9.34179688 9.16455078 C7.86002769 9.17392907 6.37825672 9.18302923 4.89648438 9.19189453 C4.15011719 9.20027344 3.40375 9.20865234 2.63476562 9.21728516 C-3.00195312 9.24267578 -3.00195312 9.24267578 -5.22851562 8.12939453 C-5.27093286 5.79644678 -5.269445 3.46236886 -5.22851562 1.12939453 C-3.6694478 -0.42967329 -2.16697281 0.00217082 0 0 Z " fill="#000000" transform="translate(340.228515625,118.87060546875)"/>
<path d="M0 0 C6.39037231 -0.02527062 12.78073183 -0.04283317 19.17114258 -0.05493164 C21.34692873 -0.05997308 23.52271147 -0.06680607 25.69848633 -0.07543945 C28.81853067 -0.08751338 31.93853038 -0.09323005 35.05859375 -0.09765625 C36.52733192 -0.10539818 36.52733192 -0.10539818 38.02574158 -0.11329651 C39.37702904 -0.11340981 39.37702904 -0.11340981 40.75561523 -0.11352539 C41.95141457 -0.11685631 41.95141457 -0.11685631 43.17137146 -0.12025452 C45 0 45 0 46 1 C46.125 4.5 46.125 4.5 46 8 C43.95761908 10.04238092 39.76319246 9.41508455 36.9375 9.5625 C34.318125 9.706875 31.69875 9.85125 29 10 C28.67 19.57 28.34 29.14 28 39 C24.37 39 20.74 39 17 39 C17 29.1 17 19.2 17 9 C11.77936725 9.03957157 11.77936725 9.03957157 6.55883789 9.09008789 C4.70566241 9.09723945 2.85250692 9.0502852 1 9 C0 8 0 8 -0.09765625 6.15234375 C-0.06510417 4.1015625 -0.03255208 2.05078125 0 0 Z " fill="#010101" transform="translate(442,119)"/>
<path d="M0 0 C3.63 0 7.26 0 11 0 C11 9.9 11 19.8 11 30 C20.24 30 29.48 30 39 30 C39 32.97 39 35.94 39 39 C26.13 39 13.26 39 0 39 C0 26.13 0 13.26 0 0 Z " fill="#020202" transform="translate(545,119)"/>
<path d="M0 0 C0.99 0 1.98 0 3 0 C3 35.97 3 71.94 3 109 C2.01 109.495 2.01 109.495 1 110 C0.34 109.67 -0.32 109.34 -1 109 C-1.02334064 95.08347801 -1.04091848 81.16695905 -1.05181217 67.25042152 C-1.05703954 60.78901111 -1.06413457 54.32761381 -1.07543945 47.86621094 C-1.08627348 41.63521571 -1.09227794 35.40423313 -1.09487724 29.17322922 C-1.09673056 26.79129207 -1.10034939 24.40935565 -1.10573006 22.02742386 C-1.11294729 18.70137261 -1.11399065 15.37537418 -1.11352539 12.04931641 C-1.11712067 11.05597794 -1.12071594 10.06263947 -1.12442017 9.03919983 C-1.1230455 8.13613602 -1.12167084 7.2330722 -1.12025452 6.30264282 C-1.12117631 5.51543161 -1.1220981 4.72822041 -1.12304783 3.91715431 C-1 2 -1 2 0 0 Z " fill="#101519" transform="translate(321,114)"/>
<path d="M0 0 C3.63 0 7.26 0 11 0 C11 12.87 11 25.74 11 39 C7.37 39 3.74 39 0 39 C0 26.13 0 13.26 0 0 Z " fill="#020202" transform="translate(757,119)"/>
<path d="M0 0 C3.3 0 6.6 0 10 0 C11.81565436 1.81565436 11.12861899 4.31269962 11.13894653 6.72888184 C11.1369223 7.52991333 11.13489807 8.33094482 11.1328125 9.15625 C11.13376923 9.97371704 11.13472595 10.79118408 11.13571167 11.63342285 C11.13639345 13.36515378 11.13453929 15.09688724 11.13037109 16.82861328 C11.12502279 19.48866482 11.13031612 22.1485475 11.13671875 24.80859375 C11.13605797 26.48697954 11.1347768 28.16536523 11.1328125 29.84375 C11.13483673 30.64478149 11.13686096 31.44581299 11.13894653 32.27111816 C11.11495079 37.88504921 11.11495079 37.88504921 10 39 C6.7 39 3.4 39 0 39 C0 26.13 0 13.26 0 0 Z " fill="#000000" transform="translate(835,119)"/>
</svg>
